<?xml version="1.0" standalone="no"?>
<!DOCTYPE svg PUBLIC "-//W3C//DTD SVG 20010904//EN"
 "http://www.w3.org/TR/2001/REC-SVG-20010904/DTD/svg10.dtd">
<svg version="1.0" xmlns="http://www.w3.org/2000/svg"
 width="512.000000pt" height="512.000000pt" viewBox="0 0 512.000000 512.000000"
 preserveAspectRatio="xMidYMid meet">

<g transform="translate(0.000000,512.000000) scale(0.100000,-0.100000)"
fill="#000000" stroke="none">
<path d="M771 4335 c-228 -50 -426 -241 -490 -475 -21 -74 -21 -92 -21 -1300
0 -1208 0 -1226 21 -1300 50 -181 177 -338 340 -418 152 -75 82 -72 1430 -72
1159 0 1209 1 1281 19 149 38 280 122 364 234 96 128 134 235 143 400 l6 108
309 -232 c170 -127 330 -241 355 -252 91 -40 194 -22 269 47 89 81 82 -54 82
1466 0 1520 7 1385 -82 1466 -75 69 -178 87 -269 47 -25 -11 -185 -125 -355
-252 l-309 -232 -6 108 c-9 165 -47 272 -144 400 -85 114 -211 195 -359 233
-77 19 -110 20 -1290 19 -993 0 -1223 -3 -1275 -14z m1400 -1041 c28 -16 62
-42 75 -59 47 -62 54 -94 54 -259 l0 -154 158 -3 c153 -4 160 -5 218 -34 184
-94 184 -356 0 -450 -58 -29 -65 -30 -217 -34 l-158 -3 -3 -167 c-3 -167 -3
-168 -33 -217 -86 -139 -279 -161 -395 -45 -67 67 -80 116 -80 292 l0 137
-157 4 c-170 5 -201 13 -261 63 -18 15 -45 48 -60 74 -23 39 -27 57 -27 121 0
64 4 82 27 121 15 26 42 59 60 74 60 50 91 58 261 63 l157 4 0 137 c0 176 13
225 80 292 83 83 196 99 301 43z"/>
</g>
</svg>
