<?xml version="1.0" standalone="no"?>
<!DOCTYPE svg PUBLIC "-//W3C//DTD SVG 20010904//EN"
 "http://www.w3.org/TR/2001/REC-SVG-20010904/DTD/svg10.dtd">
<svg version="1.0" xmlns="http://www.w3.org/2000/svg"
 width="24.000000pt" height="24.000000pt" viewBox="0 0 24.000000 24.000000"
 preserveAspectRatio="xMidYMid meet">

<g transform="translate(0.000000,24.000000) scale(0.100000,-0.100000)"
fill="#000000" stroke="none">
<path d="M91 226 c-18 -22 -10 -117 12 -130 31 -19 52 4 55 63 3 56 -9 81 -38
81 -10 0 -23 -6 -29 -14z"/>
<path d="M30 116 c0 -20 37 -64 60 -71 11 -4 20 -15 20 -26 0 -10 5 -19 10
-19 6 0 10 9 10 19 0 11 9 22 20 26 36 11 80 85 50 85 -5 0 -10 -6 -10 -13 0
-22 -44 -57 -71 -57 -26 0 -69 37 -69 58 0 7 -4 12 -10 12 -5 0 -10 -6 -10
-14z"/>
</g>
</svg>
