<?xml version="1.0" standalone="no"?>
<!DOCTYPE svg PUBLIC "-//W3C//DTD SVG 20010904//EN"
 "http://www.w3.org/TR/2001/REC-SVG-20010904/DTD/svg10.dtd">
<svg version="1.0" xmlns="http://www.w3.org/2000/svg"
 width="48.000000pt" height="48.000000pt" viewBox="0 0 48.000000 48.000000"
 preserveAspectRatio="xMidYMid meet">

<g transform="translate(0.000000,48.000000) scale(0.100000,-0.100000)"
fill="#000000" stroke="none">
<path d="M30 431 c-5 -11 -10 -45 -10 -75 0 -77 20 -96 100 -96 80 0 100 19
100 96 0 88 -7 94 -100 94 -68 0 -81 -3 -90 -19z"/>
<path d="M270 431 c-5 -11 -10 -45 -10 -75 0 -77 20 -96 100 -96 80 0 100 19
100 96 0 88 -7 94 -100 94 -68 0 -81 -3 -90 -19z"/>
<path d="M30 191 c-5 -11 -10 -45 -10 -75 0 -77 20 -96 100 -96 80 0 100 19
100 96 0 88 -7 94 -100 94 -68 0 -81 -3 -90 -19z"/>
<path d="M295 185 c-35 -34 -35 -96 0 -130 34 -35 96 -35 130 0 19 18 25 35
25 65 0 56 -34 90 -90 90 -30 0 -47 -6 -65 -25z"/>
</g>
</svg>
