<?xml version="1.0" standalone="no"?>
<!DOCTYPE svg PUBLIC "-//W3C//DTD SVG 20010904//EN"
 "http://www.w3.org/TR/2001/REC-SVG-20010904/DTD/svg10.dtd">
<svg version="1.0" xmlns="http://www.w3.org/2000/svg"
 width="512.000000pt" height="512.000000pt" viewBox="0 0 512.000000 512.000000"
 preserveAspectRatio="xMidYMid meet">

<g transform="translate(0.000000,512.000000) scale(0.100000,-0.100000)"
fill="#000000" stroke="none">
<path d="M1795 5114 c-16 -2 -66 -9 -110 -15 -770 -100 -1428 -685 -1620
-1439 -47 -185 -59 -283 -59 -490 0 -207 12 -305 59 -490 85 -331 259 -634
510 -885 349 -350 793 -546 1290 -571 444 -23 935 135 1282 411 l68 55 124
-124 124 -124 -62 -69 c-67 -75 -87 -121 -77 -180 6 -34 64 -95 544 -575 496
-496 542 -539 604 -568 180 -84 378 -52 514 84 133 134 167 328 88 508 -25 58
-69 105 -568 606 -298 299 -553 550 -568 558 -32 17 -86 18 -124 4 -15 -6 -55
-40 -88 -76 l-61 -65 -117 118 -118 118 55 68 c277 348 434 838 411 1282 -25
497 -221 941 -571 1290 -297 298 -651 479 -1075 550 -91 15 -392 28 -455 19z
m395 -929 c306 -84 616 -316 901 -675 139 -175 209 -289 209 -340 0 -51 -70
-165 -209 -340 -287 -362 -593 -590 -907 -677 -85 -24 -118 -27 -234 -27 -116
0 -149 3 -234 27 -314 87 -620 315 -907 677 -139 175 -209 289 -209 340 0 51
70 165 209 340 319 402 655 635 1010 701 84 15 267 2 371 -26z"/>
<path d="M1841 3909 c-106 -21 -235 -77 -346 -152 -171 -114 -381 -326 -530
-535 l-37 -53 85 -112 c326 -429 683 -659 982 -634 292 25 650 290 940 695
l37 53 -85 112 c-349 459 -731 688 -1046 626z m190 -299 c235 -45 399 -275
361 -506 -32 -196 -180 -344 -376 -376 -289 -48 -556 219 -508 508 42 252 277
420 523 374z"/>
<path d="M1878 3299 c-43 -22 -78 -81 -78 -129 0 -50 35 -107 80 -130 21 -11
53 -20 70 -20 76 0 150 74 150 150 0 50 -35 107 -80 130 -49 25 -94 25 -142
-1z"/>
</g>
</svg>
